<svg width="51" height="50" viewBox="0 0 51 50" fill="none" xmlns="http://www.w3.org/2000/svg">
<path d="M9.25281 0C4.19536 0 0.123108 4.07224 0.123108 9.12968V40.8703C0.123108 45.9277 4.19536 50 9.25281 50H26.456V30.4531H21.2872V23.4156H26.456V17.4031C26.456 12.6794 29.5099 8.34218 36.545 8.34218C39.3934 8.34218 41.4997 8.61563 41.4997 8.61563L41.3341 15.1875C41.3341 15.1875 39.1859 15.1672 36.8419 15.1672C34.3049 15.1672 33.8981 16.3361 33.8981 18.2766V23.4157H41.5356L41.2028 30.4531H33.8981V50H40.9934C46.0509 50 50.1231 45.9278 50.1231 40.8703V9.12973C50.1231 4.07229 46.0509 4.99999e-05 40.9934 4.99999e-05L9.25281 0Z" fill="#02374E"/>
</svg>
