<svg width="51" height="50" viewBox="0 0 51 50" fill="none" xmlns="http://www.w3.org/2000/svg">
<path d="M42.159 15.6901C40.9437 16.2326 39.6308 16.6016 38.2202 16.7969C39.6959 15.9288 40.705 14.6593 41.2475 12.9883C39.8369 13.8129 38.3829 14.3663 36.8855 14.6484C35.5618 13.2161 33.9016 12.5 31.9051 12.5C30.017 12.5 28.4057 13.1673 27.0711 14.502C25.7364 15.8366 25.0691 17.4479 25.0691 19.3359C25.0691 19.9653 25.1234 20.4861 25.2319 20.8984C22.4324 20.7465 19.8065 20.0412 17.3543 18.7826C14.902 17.5239 12.8187 15.842 11.1043 13.737C10.4749 14.822 10.1603 15.9722 10.1603 17.1875C10.1603 19.6615 11.1477 21.5603 13.1225 22.8841C12.1026 22.8624 11.0175 22.5803 9.86731 22.0378V22.1029C9.86731 23.7305 10.4098 25.179 11.4949 26.4486C12.58 27.7181 13.9146 28.5048 15.4988 28.8086C14.8695 28.9822 14.3161 29.069 13.8387 29.069C13.5565 29.069 13.1334 29.0256 12.5691 28.9388C13.0249 30.306 13.8332 31.4345 14.9943 32.3242C16.1553 33.214 17.4736 33.6697 18.9493 33.6914C16.432 35.6445 13.5999 36.6211 10.4532 36.6211C9.88901 36.6211 9.34648 36.5885 8.82564 36.5234C12.0374 38.5634 15.5314 39.5833 19.3074 39.5833C21.738 39.5833 24.0166 39.1981 26.1434 38.4277C28.2701 37.6573 30.093 36.6265 31.6121 35.3353C33.1312 34.0441 34.4387 32.5575 35.5346 30.8757C36.6305 29.1938 37.4443 27.436 37.976 25.6022C38.5077 23.7684 38.7736 21.9401 38.7736 20.1172C38.7736 19.7266 38.7627 19.4336 38.741 19.2383C40.1082 18.2617 41.2475 17.079 42.159 15.6901ZM50.4923 9.375V40.625C50.4923 43.2075 49.5754 45.4156 47.7417 47.2493C45.9079 49.0831 43.6998 50 41.1173 50H9.86731C7.28484 50 5.07673 49.0831 3.24296 47.2493C1.40919 45.4156 0.49231 43.2075 0.49231 40.625V9.375C0.49231 6.79253 1.40919 4.58442 3.24296 2.75065C5.07673 0.916884 7.28484 0 9.86731 0L41.1173 0C43.6998 0 45.9079 0.916884 47.7417 2.75065C49.5754 4.58442 50.4923 6.79253 50.4923 9.375Z" fill="#02374E"/>
</svg>
