<svg width="51" height="50" viewBox="0 0 51 50" fill="none" xmlns="http://www.w3.org/2000/svg">
<path d="M25.3692 10.1339C17.2554 10.1339 10.6594 16.7299 10.6482 24.8438C10.6482 27.6228 11.4295 30.3348 12.9027 32.6674L13.2487 33.2254L11.7643 38.6496L17.3335 37.1875L17.8692 37.5112C20.1237 38.8504 22.7129 39.5647 25.358 39.5647H25.3692C33.4719 39.5647 40.2464 32.9688 40.2464 24.8549C40.2464 20.9263 38.55 17.2321 35.771 14.4531C32.9808 11.6629 29.2978 10.1339 25.3692 10.1339ZM34.0188 31.1607C33.6505 32.1987 31.8871 33.1362 31.0388 33.2589C29.6326 33.471 28.5388 33.3594 25.7375 32.154C21.3067 30.2344 18.4049 25.7701 18.1817 25.4799C17.9585 25.1897 16.3737 23.0804 16.3737 20.904C16.3737 18.7277 17.5121 17.6562 17.925 17.2098C18.3268 16.7634 18.8067 16.6518 19.108 16.6518C19.3982 16.6518 19.6996 16.6518 19.9563 16.6629C20.2241 16.6741 20.5924 16.5625 20.9496 17.4219C21.3179 18.3036 22.1996 20.4799 22.3112 20.7031C22.4228 20.9263 22.5009 21.183 22.3446 21.4732C21.4964 23.1696 20.5924 23.1027 21.05 23.8839C22.7576 26.8192 24.4652 27.8348 27.0656 29.1406C27.5121 29.3638 27.7688 29.3304 28.0255 29.029C28.2821 28.7388 29.1304 27.7344 29.4205 27.2991C29.7107 26.8527 30.0121 26.9308 30.4138 27.0759C30.8156 27.221 32.992 28.2924 33.4384 28.5156C33.8848 28.7388 34.175 28.8504 34.2866 29.029C34.3871 29.2411 34.3871 30.1339 34.0188 31.1607ZM45.0121 0L5.72634 0C2.76876 0 0.369202 2.39955 0.369202 5.35714V44.6429C0.369202 47.6004 2.76876 50 5.72634 50H45.0121C47.9696 50 50.3692 47.6004 50.3692 44.6429V5.35714C50.3692 2.39955 47.9696 0 45.0121 0ZM25.358 42.5446C22.3893 42.5446 19.4763 41.7969 16.8982 40.3906L7.51206 42.8571L10.0232 33.683C8.47188 31.0045 7.65715 27.9576 7.65715 24.8326C7.66831 15.0781 15.6036 7.14286 25.358 7.14286C30.0902 7.14286 34.5322 8.98438 37.8804 12.3326C41.2174 15.6808 43.2263 20.1228 43.2263 24.8549C43.2263 34.6094 35.1125 42.5446 25.358 42.5446Z" fill="#02374E"/>
</svg>
