<svg width="51" height="50" viewBox="0 0 51 50" fill="none" xmlns="http://www.w3.org/2000/svg">
<path d="M1.44693 42.155C1.73 43.669 2.28141 45.0396 3.04255 46.1213C3.82518 47.2362 4.7844 48.0337 5.82967 48.4386C9.74165 49.9845 25.4145 49.9845 25.4145 49.9845C31.9484 50.096 38.4806 49.6058 44.9744 48.5167C46.0197 48.0819 46.9771 47.2666 47.7615 46.1431C48.5323 45.0313 49.0905 43.6603 49.3821 42.1581C50.0827 36.4999 50.4231 30.7547 50.3987 25C50.4237 19.2505 50.0841 13.5072 49.3821 7.84192C49.0968 6.34597 48.5406 4.98119 47.7678 3.87875C46.995 2.77631 46.0326 1.97993 44.9744 1.55831C41.0104 0.015522 25.4145 0.015522 25.4145 0.015522C18.8724 -0.0960846 12.3318 0.394115 5.82967 1.48336C4.7844 1.88822 3.82518 2.68575 3.04255 3.80067C2.28168 4.88212 1.73092 6.25297 1.44901 7.76696C0.730175 13.423 0.380653 19.1705 0.405403 24.9282C0.351337 30.7102 0.700409 36.4849 1.44693 42.1581V42.155ZM30.3972 14.3067V35.6903L17.3573 24.9969L30.3972 14.3067Z" fill="#02374E"/>
</svg>
